<svg width="71" height="70" viewBox="0 0 71 70" fill="none" xmlns="http://www.w3.org/2000/svg">
    <path d="M23.6667 8.75C15.4987 8.75 8.875 15.2804 8.875 23.3333V46.6667C8.875 54.7196 15.4987 61.25 23.6667 61.25H47.3333C55.5013 61.25 62.125 54.7196 62.125 46.6667V23.3333C62.125 15.2804 55.5013 8.75 47.3333 8.75H23.6667ZM53.25 14.5833C54.883 14.5833 56.2083 15.89 56.2083 17.5C56.2083 19.11 54.883 20.4167 53.25 20.4167C51.617 20.4167 50.2917 19.11 50.2917 17.5C50.2917 15.89 51.617 14.5833 53.25 14.5833ZM35.5 20.4167C43.668 20.4167 50.2917 26.9471 50.2917 35C50.2917 43.0529 43.668 49.5833 35.5 49.5833C27.332 49.5833 20.7083 43.0529 20.7083 35C20.7083 26.9471 27.332 20.4167 35.5 20.4167ZM35.5 26.25C33.1462 26.25 30.8888 27.1719 29.2244 28.8128C27.56 30.4538 26.625 32.6794 26.625 35C26.625 37.3206 27.56 39.5462 29.2244 41.1872C30.8888 42.8281 33.1462 43.75 35.5 43.75C37.8538 43.75 40.1112 42.8281 41.7756 41.1872C43.44 39.5462 44.375 37.3206 44.375 35C44.375 32.6794 43.44 30.4538 41.7756 28.8128C40.1112 27.1719 37.8538 26.25 35.5 26.25Z" fill="black"/>
</svg>
