<svg width="67" height="67" viewBox="0 0 67 67" fill="none" xmlns="http://www.w3.org/2000/svg">
    <path d="M52.7881 8.51758H14.2881C11.2493 8.51758 8.78809 10.9788 8.78809 14.0176V52.5176C8.78809 55.5563 11.2493 58.0176 14.2881 58.0176H52.7881C55.8268 58.0176 58.2881 55.5563 58.2881 52.5176V14.0176C58.2881 10.9788 55.8268 8.51758 52.7881 8.51758ZM25.2881 47.0176H18.3498V27.7676H25.2881V47.0176ZM21.6966 24.2393C19.5763 24.2393 18.1601 22.8258 18.1601 20.9393C18.1601 19.0528 19.5736 17.6393 21.9303 17.6393C24.0506 17.6393 25.4668 19.0528 25.4668 20.9393C25.4668 22.8258 24.0533 24.2393 21.6966 24.2393ZM50.0381 47.0176H43.3226V36.4961C43.3226 33.5866 41.5323 32.9156 40.8613 32.9156C40.1903 32.9156 37.9518 33.3638 37.9518 36.4961C37.9518 36.9443 37.9518 47.0176 37.9518 47.0176H31.0136V27.7676H37.9518V30.4543C38.8456 28.8868 40.6358 27.7676 43.9936 27.7676C47.3513 27.7676 50.0381 30.4543 50.0381 36.4961V47.0176Z" fill="black"/>
</svg>
