<svg width="42" height="36" viewBox="0 0 42 36" fill="none" xmlns="http://www.w3.org/2000/svg">
    <path d="M24 0C19.2261 0 14.6477 1.89642 11.2721 5.27208C7.89642 8.64773 6 13.2261 6 18H0L7.78 25.78L7.92 26.06L16 18H10C10 14.287 11.475 10.726 14.1005 8.1005C16.726 5.475 20.287 4 24 4C27.713 4 31.274 5.475 33.8995 8.1005C36.525 10.726 38 14.287 38 18C38 21.713 36.525 25.274 33.8995 27.8995C31.274 30.525 27.713 32 24 32C20.14 32 17.5 30.5 15 29C12.5 27.5 10 30 12.5 32C15 34 19 36 24 36C28.7739 36 33.3523 34.1036 36.7279 30.7279C40.1036 27.3523 42 22.7739 42 18C42 13.2261 40.1036 8.64773 36.7279 5.27208C33.3523 1.89642 28.7739 0 24 0Z" fill="#B28DDE"/>
</svg>
