<svg width="19" height="19" viewBox="0 0 19 19" fill="none" xmlns="http://www.w3.org/2000/svg">
    <path d="M18.0841 2.89125L18.084 2.89142L11.8347 9.14661L11.4813 9.50033L11.835 9.85372L18.0901 16.1028C18.0901 16.1029 18.0902 16.1029 18.0902 16.103C18.6366 16.6495 18.6366 17.5376 18.0901 18.0841C17.5435 18.6307 16.6553 18.6307 16.1087 18.0841L16.1086 18.084L9.85338 11.8347L9.49966 11.4813L9.14628 11.835L2.89719 18.0901C2.89714 18.0901 2.89709 18.0902 2.89704 18.0902C2.35045 18.6366 1.4624 18.6366 0.915868 18.0901C0.36929 17.5435 0.36929 16.6553 0.915868 16.1087L0.916036 16.1086L7.16529 9.85338L7.51868 9.49966L7.16496 9.14628L0.909933 2.89719C0.363356 2.35061 0.363356 1.46245 0.909933 0.915868C1.45651 0.36929 2.34468 0.36929 2.89125 0.915868L2.89142 0.916036L9.14661 7.16529L9.50033 7.51868L9.85372 7.16496L16.1028 0.909933C16.1029 0.909877 16.1029 0.909821 16.103 0.909765C16.6496 0.363356 17.5376 0.363412 18.0841 0.909933C18.6307 1.45651 18.6307 2.34468 18.0841 2.89125Z" fill="black" stroke="#FEDFEA"/>
</svg>
